<?xml version="1.0" encoding="utf-8"?>
<!-- Generator: Adobe Illustrator 24.0.2, SVG Export Plug-In . SVG Version: 6.00 Build 0)  -->
<!DOCTYPE svg PUBLIC "-//W3C//DTD SVG 1.1//EN" "http://www.w3.org/Graphics/SVG/1.1/DTD/svg11.dtd" [
	<!ENTITY ns_extend "http://ns.adobe.com/Extensibility/1.0/">
	<!ENTITY ns_ai "http://ns.adobe.com/AdobeIllustrator/10.0/">
	<!ENTITY ns_graphs "http://ns.adobe.com/Graphs/1.0/">
	<!ENTITY ns_vars "http://ns.adobe.com/Variables/1.0/">
	<!ENTITY ns_imrep "http://ns.adobe.com/ImageReplacement/1.0/">
	<!ENTITY ns_sfw "http://ns.adobe.com/SaveForWeb/1.0/">
	<!ENTITY ns_custom "http://ns.adobe.com/GenericCustomNamespace/1.0/">
	<!ENTITY ns_adobe_xpath "http://ns.adobe.com/XPath/1.0/">
]>
<svg version="1.1" id="Capa_1" xmlns:x="&ns_extend;" xmlns:i="&ns_ai;" xmlns:graph="&ns_graphs;"
	 xmlns="http://www.w3.org/2000/svg" xmlns:xlink="http://www.w3.org/1999/xlink" x="0px" y="0px" viewBox="0 0 60 60"
	 style="enable-background:new 0 0 60 60;" xml:space="preserve">
<style type="text/css">
	.st0{fill:#FFDB12;}
</style>
<metadata>
	<sfw  xmlns="&ns_sfw;">
		<slices></slices>
		<sliceSourceBounds  bottomLeftOrigin="true" height="60" width="60" x="0" y="0"></sliceSourceBounds>
	</sfw>
</metadata>
<g>
	<g>
		<path class="st0" d="M59.2,11.3L30.5,0.1c-0.3-0.1-0.6-0.1-0.9,0L0.8,11.3c-0.3,0.1-0.6,0.4-0.7,0.7c-0.3,0.6,0,1.4,0.6,1.6
			l28.7,12.5c0.2,0.1,0.3,0.1,0.5,0.1s0.3,0,0.5-0.1l28.7-12.5c0.3-0.1,0.5-0.4,0.7-0.7C60.2,12.3,59.8,11.6,59.2,11.3z M30,23.6
			l-25.5-11L30,2.6l25.5,10L30,23.6z"/>
	</g>
</g>
<g>
	<g>
		<path class="st0" d="M30,7.5c-4.2,0-7.5,2.2-7.5,5s3.3,5,7.5,5s7.5-2.2,7.5-5S34.2,7.5,30,7.5z M30,15c-2.9,0-5-1.3-5-2.5
			s2.1-2.5,5-2.5s5,1.3,5,2.5S32.9,15,30,15z"/>
	</g>
</g>
<g>
	<g>
		<rect x="11.3" y="11.3" class="st0" width="12.5" height="2.5"/>
	</g>
</g>
<g>
	<g>
		<path class="st0" d="M26.3,46.3h-10c-0.7,0-1.2,0.6-1.2,1.3V55c0,0.2,0,0.4,0.1,0.6c0.3,0.6,1.1,0.9,1.7,0.6l4.4-2.2l4.4,2.2
			c0.2,0.1,0.4,0.1,0.6,0.1c0.7,0,1.2-0.6,1.2-1.3v-7.5C27.5,46.8,26.9,46.3,26.3,46.3z M25,53l-3.2-1.6c-0.2-0.1-0.4-0.1-0.6-0.1
			s-0.4,0-0.6,0.1L17.5,53v-4.2H25V53z"/>
	</g>
</g>
<g>
	<g>
		<path class="st0" d="M56,44.4l-2-1.3c-1.6,2.5-2.5,5.3-2.7,8.2c0.2,2.9,1.1,5.7,2.7,8.2l2.1-1.4c-1.3-2-2.1-4.4-2.3-6.8
			C53.9,48.8,54.7,46.5,56,44.4z"/>
	</g>
</g>
<g>
	<g>
		<rect x="41.3" y="47.5" class="st0" width="11.2" height="2.5"/>
	</g>
</g>
<g>
	<g>
		<rect x="36.3" y="47.5" class="st0" width="2.5" height="2.5"/>
	</g>
</g>
<g>
	<g>
		<rect x="31.3" y="47.5" class="st0" width="2.5" height="2.5"/>
	</g>
</g>
<g>
	<g>
		<rect x="31.3" y="52.5" class="st0" width="12.5" height="2.5"/>
	</g>
</g>
<g>
	<g>
		<rect x="46.2" y="52.5" class="st0" width="2.5" height="2.5"/>
	</g>
</g>
<g>
	<g>
		<path class="st0" d="M9.7,45l2.2,1.1c0.4,0.2,0.8,0.2,1.1,0l2.2-1.1h42.2c0.7,0,1.2-0.6,1.2-1.3V17.5h-2.5v25H15
			c-0.2,0-0.4,0-0.6,0.1l-1.9,1l-1.9-1c-0.2-0.1-0.4-0.1-0.6-0.1c-4.8,0-8.7,3.9-8.7,8.7s3.9,8.7,8.7,8.7c0.2,0,0.4,0,0.6-0.1l1.9-1
			l1.9,1C14.6,60,14.8,60,15,60h43.7v-2.5H15.3l-2.2-1.1c-0.4-0.2-0.8-0.2-1.1,0l-2.2,1.1c-3.2-0.1-5.8-2.7-6-6
			C3.6,48.1,6.3,45.2,9.7,45z"/>
	</g>
</g>
<g>
	<g>
		<rect x="1.3" y="17.5" class="st0" width="2.5" height="33.7"/>
	</g>
</g>
<g>
	<g>
		<path class="st0" d="M46.2,17.5v11.2c0,4.1-6.9,8.7-16.2,8.7s-16.2-4.6-16.2-8.7V17.5h-2.5v11.2C11.3,34.8,19.8,40,30,40
			s18.7-5.2,18.7-11.2V17.5H46.2L46.2,17.5z"/>
	</g>
</g>
<g>
	<g>
		<path class="st0" d="M41.3,20v8.6c-0.5,0.9-4.3,3.9-11.2,3.9V35c7.8,0,13.7-3.8,13.7-6.2V20H41.3L41.3,20z"/>
	</g>
</g>
<g>
	<g>
		<rect x="40" y="11.3" class="st0" width="2.5" height="2.5"/>
	</g>
</g>
<g>
	<g>
		<rect x="45" y="11.3" class="st0" width="2.5" height="2.5"/>
	</g>
</g>
<g>
	<g>
		<rect x="6.3" y="20" class="st0" width="2.5" height="2.5"/>
	</g>
</g>
<g>
	<g>
		<rect x="6.3" y="25" class="st0" width="2.5" height="2.5"/>
	</g>
</g>
</svg>
