<?xml version="1.0" encoding="utf-8"?>
<!-- Generator: Adobe Illustrator 24.0.2, SVG Export Plug-In . SVG Version: 6.00 Build 0)  -->
<!DOCTYPE svg PUBLIC "-//W3C//DTD SVG 1.1//EN" "http://www.w3.org/Graphics/SVG/1.1/DTD/svg11.dtd" [
	<!ENTITY ns_extend "http://ns.adobe.com/Extensibility/1.0/">
	<!ENTITY ns_ai "http://ns.adobe.com/AdobeIllustrator/10.0/">
	<!ENTITY ns_graphs "http://ns.adobe.com/Graphs/1.0/">
	<!ENTITY ns_vars "http://ns.adobe.com/Variables/1.0/">
	<!ENTITY ns_imrep "http://ns.adobe.com/ImageReplacement/1.0/">
	<!ENTITY ns_sfw "http://ns.adobe.com/SaveForWeb/1.0/">
	<!ENTITY ns_custom "http://ns.adobe.com/GenericCustomNamespace/1.0/">
	<!ENTITY ns_adobe_xpath "http://ns.adobe.com/XPath/1.0/">
]>
<svg version="1.1" id="Layer_1" xmlns:x="&ns_extend;" xmlns:i="&ns_ai;" xmlns:graph="&ns_graphs;"
	 xmlns="http://www.w3.org/2000/svg" xmlns:xlink="http://www.w3.org/1999/xlink" x="0px" y="0px" viewBox="0 0 61.8 61.9"
	 style="enable-background:new 0 0 61.8 61.9;" xml:space="preserve">
<style type="text/css">
	.st0{fill:#DC38FF;}
</style>
<metadata>
	<sfw  xmlns="&ns_sfw;">
		<slices></slices>
		<sliceSourceBounds  bottomLeftOrigin="true" height="61.9" width="61.9" x="0" y="0"></sliceSourceBounds>
	</sfw>
</metadata>
<g id="Page-1">
	<g id="_x30_34---Easter-Eggs">
		<path id="Shape" class="st0" d="M43.3,0c-8.7,0-15.4,9.9-17.7,19.8c-5.3-4.1-10.7-5.5-15.3-3.8C0.4,19.4-2.3,36,1.9,47.9
			c3.2,9,9.6,14,17.4,14c2.3,0,4.6-0.4,6.8-1.2c6.9-2.4,11.1-7.5,12.1-13.9c1.7,0.4,3.4,0.6,5.1,0.6c11.3,0,18.6-7.9,18.6-20.1
			C61.8,14.7,53.7,0,43.3,0L43.3,0z M53.8,8.6c-1.3,0.9-2.9,0.9-4.2,0.2c-1.4-0.7-2.2-2.1-2.2-3.6c0-0.7,0.2-1.3,0.5-1.9
			C50.3,4.5,52.3,6.3,53.8,8.6z M38.7,3.2c0.3,0.6,0.5,1.2,0.5,1.9c0,1.5-0.8,2.9-2.2,3.6c-1.3,0.7-3,0.6-4.2-0.2
			C34.3,6.4,36.3,4.6,38.7,3.2z M2,37.4l8.9,4.3c0.2,0.1,0.5,0.1,0.8,0s0.5-0.3,0.6-0.5l4-8.3l8.3,4c0.5,0.2,1.1,0,1.4-0.5l4.2-8.9
			c0.7,0.9,1.4,1.9,2,2.9l-5.2,11l-8.3-4c-0.5-0.2-1.1,0-1.4,0.5l-4,8.3L2.3,41C2.2,39.8,2.1,38.6,2,37.4L2,37.4z M24.5,34.5l-8.3-4
			c-0.5-0.2-1.1,0-1.4,0.5l-4,8.3L2,35.1c0-0.7,0.1-1.4,0.1-2.1l25.2-8.9c0.5,0.5,1,1,1.4,1.5L24.5,34.5z M25.7,22.6L2.5,30.8
			C2.6,30,2.8,29.2,3,28.4L23.8,21c0.2,0.2,0.5,0.4,0.7,0.5C24.9,21.9,25.3,22.2,25.7,22.6L25.7,22.6z M11,17.9
			c1-0.4,2.1-0.5,3.2-0.5c2.6,0.1,5.2,0.9,7.4,2.3L3.7,25.9C5.2,22.1,7.6,19.1,11,17.9z M2.8,43.4l10.6,5.1c0.5,0.2,1.1,0,1.4-0.5
			l4-8.3l8.3,3.9c0.5,0.2,1.1,0,1.4-0.5l5-10.6c0.6,1.2,1.1,2.4,1.6,3.6c0.8,2.1,1.2,4.4,1.3,6.6L7,53.2c-1.3-1.8-2.4-3.8-3.1-6
			C3.4,46,3.1,44.7,2.8,43.4L2.8,43.4z M8.4,54.9L36.3,45c-0.1,0.8-0.2,1.5-0.3,2.3l-25.9,9.2C9.5,56,8.9,55.5,8.4,54.9z M25.4,58.7
			c-4.3,1.7-9.2,1.4-13.2-0.8l23-8.1C33.4,54.1,29.9,57.4,25.4,58.7L25.4,58.7z M43.3,45.4c-1.6,0-3.3-0.2-4.9-0.6
			c0.1-3.1-0.4-6.2-1.5-9.2c-2-5.5-5.3-10.3-9.5-14.2c0.8-3.9,2.2-7.6,4.3-11c1.9,1.3,4.3,1.4,6.3,0.3s3.3-3.2,3.3-5.4
			c0-0.9-0.2-1.9-0.6-2.7c0.9-0.3,1.8-0.4,2.7-0.4s1.8,0.1,2.7,0.4c-0.4,0.8-0.6,1.8-0.6,2.7c0,2.3,1.3,4.4,3.3,5.5s4.5,0.9,6.4-0.3
			c2.7,4.5,4.3,9.6,4.7,14.8c-2.3-0.8-4.9-0.1-6.5,1.7c-1.7,1.8-2.1,4.4-1.2,6.6s3.1,3.7,5.6,3.8C54.9,42.3,49.9,45.4,43.3,45.4z
			 M58.5,35c-0.3,0.1-0.5,0.1-0.8,0.1c-2.3,0-4.1-1.8-4.1-4.1s1.8-4.1,4.1-4.1c0.7,0,1.4,0.2,2.1,0.6C59.8,30,59.4,32.5,58.5,35z"/>
		<path id="Shape_1_" class="st0" d="M9,33.9c-0.5,0.2-0.8,0.8-0.6,1.3s0.8,0.8,1.3,0.6s0.8-0.8,0.6-1.3c-0.1-0.3-0.3-0.5-0.5-0.6
			S9.2,33.8,9,33.9z"/>
		<path id="Shape_2_" class="st0" d="M20.6,45.1c0.4-0.1,0.7-0.5,0.7-0.9s-0.2-0.8-0.6-1s-0.8-0.1-1.1,0.2s-0.4,0.7-0.3,1.1
			C19.5,45,20.1,45.3,20.6,45.1L20.6,45.1z"/>
		<path id="Shape_3_" class="st0" d="M8,49.6c0.4-0.1,0.7-0.5,0.7-0.9s-0.2-0.8-0.6-1S7.3,47.6,7,47.9c-0.3,0.3-0.4,0.7-0.3,1.1
			C6.8,49.5,7.4,49.8,8,49.6L8,49.6z"/>
		<path id="Shape_4_" class="st0" d="M33.3,40.7c0.4-0.1,0.7-0.5,0.7-0.9s-0.2-0.8-0.6-1c-0.4-0.2-0.8-0.1-1.1,0.2s-0.4,0.7-0.3,1.1
			C32.1,40.6,32.7,40.8,33.3,40.7L33.3,40.7z"/>
		<path id="Shape_5_" class="st0" d="M22.6,29.1c-0.4,0.1-0.7,0.5-0.7,0.9s0.2,0.8,0.6,1s0.8,0.1,1.1-0.2c0.3-0.3,0.4-0.7,0.3-1.1
			C23.7,29.2,23.1,28.9,22.6,29.1L22.6,29.1z"/>
		<path id="Shape_6_" class="st0" d="M48.4,27.8c0-2.8-2.3-5.2-5.2-5.2c-2.8,0-5.2,2.3-5.2,5.2s2.3,5.2,5.2,5.2
			C46.1,33,48.4,30.7,48.4,27.8z M40.2,27.8c0-1.7,1.4-3.1,3.1-3.1c1.7,0,3.1,1.4,3.1,3.1s-1.4,3.1-3.1,3.1
			C41.6,30.9,40.2,29.6,40.2,27.8z"/>
		<path id="Shape_7_" class="st0" d="M43.3,16.5c1.7,0,3.1-1.4,3.1-3.1s-1.4-3.1-3.1-3.1c-1.7,0-3.1,1.4-3.1,3.1
			S41.6,16.5,43.3,16.5z M43.3,12.4c0.6,0,1,0.5,1,1c0,0.6-0.5,1-1,1c-0.6,0-1-0.5-1-1C42.2,12.8,42.7,12.4,43.3,12.4z"/>
		<path id="Shape_8_" class="st0" d="M35,14.4c-2.3,0-4.1,1.8-4.1,4.1s1.8,4.1,4.1,4.1s4.1-1.8,4.1-4.1S37.3,14.4,35,14.4z M35,20.6
			c-1.1,0-2.1-0.9-2.1-2.1c0-1.1,0.9-2.1,2.1-2.1s2.1,0.9,2.1,2.1S36.2,20.6,35,20.6z"/>
		<path id="Shape_9_" class="st0" d="M45.3,35.1c-2.3,0-4.1,1.8-4.1,4.1s1.8,4.1,4.1,4.1s4.1-1.8,4.1-4.1S47.6,35.1,45.3,35.1z
			 M45.3,41.3c-1.1,0-2.1-0.9-2.1-2.1s0.9-2.1,2.1-2.1s2.1,0.9,2.1,2.1S46.5,41.3,45.3,41.3z"/>
		<path id="Shape_10_" class="st0" d="M51.5,22.7c2.3,0,4.1-1.8,4.1-4.1s-1.8-4.1-4.1-4.1s-4.1,1.8-4.1,4.1S49.2,22.7,51.5,22.7z
			 M51.5,16.5c1.1,0,2.1,0.9,2.1,2.1c0,1.1-0.9,2.1-2.1,2.1s-2.1-0.9-2.1-2.1C49.5,17.4,50.4,16.5,51.5,16.5z"/>
	</g>
</g>
</svg>
