<?xml version="1.0" encoding="utf-8"?>
<!-- Generator: Adobe Illustrator 24.0.2, SVG Export Plug-In . SVG Version: 6.00 Build 0)  -->
<!DOCTYPE svg PUBLIC "-//W3C//DTD SVG 1.1//EN" "http://www.w3.org/Graphics/SVG/1.1/DTD/svg11.dtd" [
	<!ENTITY ns_extend "http://ns.adobe.com/Extensibility/1.0/">
	<!ENTITY ns_ai "http://ns.adobe.com/AdobeIllustrator/10.0/">
	<!ENTITY ns_graphs "http://ns.adobe.com/Graphs/1.0/">
	<!ENTITY ns_vars "http://ns.adobe.com/Variables/1.0/">
	<!ENTITY ns_imrep "http://ns.adobe.com/ImageReplacement/1.0/">
	<!ENTITY ns_sfw "http://ns.adobe.com/SaveForWeb/1.0/">
	<!ENTITY ns_custom "http://ns.adobe.com/GenericCustomNamespace/1.0/">
	<!ENTITY ns_adobe_xpath "http://ns.adobe.com/XPath/1.0/">
]>
<svg version="1.1" id="Outline" xmlns:x="&ns_extend;" xmlns:i="&ns_ai;" xmlns:graph="&ns_graphs;"
	 xmlns="http://www.w3.org/2000/svg" xmlns:xlink="http://www.w3.org/1999/xlink" x="0px" y="0px" viewBox="0 0 68 62.2"
	 style="enable-background:new 0 0 68 62.2;" xml:space="preserve">
<style type="text/css">
	.st0{fill:#FFFFFF;}
</style>
<metadata>
	<sfw  xmlns="&ns_sfw;">
		<slices></slices>
		<sliceSourceBounds  bottomLeftOrigin="true" height="62.2" width="68" x="16" y="40"></sliceSourceBounds>
	</sfw>
</metadata>
<path class="st0" d="M64.5,0H15c-3.8,0-6.9,3.1-6.9,6.9v30h2.3V12.1c1.3,1.1,2.9,1.8,4.6,1.8h38c2.5,0,4.6,2.1,4.6,4.6
	s-2.1,4.6-4.6,4.6H20.7c-1.9,0-3.5,1.5-3.5,3.5V38c0,0.6-0.5,1.2-1.2,1.2H3.5c-1.9,0-3.5,1.5-3.5,3.5v16.1c0,1.9,1.5,3.5,3.5,3.5H53
	c3.8,0,6.9-3.1,6.9-6.9V18.4c0-3.8-3.1-6.9-6.9-6.9H15c-1.6,0-3.2-0.9-4-2.3c0.8-1.4,2.3-2.3,4-2.3h10.4v2.3h2.3V6.9h20.7v2.3h2.3
	V6.9h15v24.2h-3.5v2.3h3.5v1.2c0,0.6-0.5,1.2-1.2,1.2h-2.3V38h2.3c1.9,0,3.5-1.5,3.5-3.5V3.5C68,1.5,66.5,0,64.5,0z M57.6,23.6
	c-0.2,1.9-1.6,3.4-3.4,3.9v-2.3C55.4,25,56.6,24.5,57.6,23.6z M25.4,27.7v-2.3h3.5v2.3H25.4z M31.1,25.4h3.5v2.3h-3.5V25.4z
	 M36.9,25.4h3.5v2.3h-3.5V25.4z M42.6,25.4h3.5v2.3h-3.5V25.4z M48.4,25.4h3.5v2.3h-3.5V25.4z M20.7,25.4h2.3v2.3h-3.5v-1.2
	C19.6,25.9,20.1,25.4,20.7,25.4z M19.6,38V30h15v25.4H13.8V41.5h2.3C18,41.5,19.6,39.9,19.6,38z M51.9,59.9h-3.5v-2.3h3.5V59.9z
	 M46.1,59.9h-3.5v-2.3h3.5V59.9z M40.3,59.9h-3.5v-2.3h3.5V59.9z M34.6,59.9h-3.5v-2.3h3.5V59.9z M11.5,57.6v2.3H8.1v-2.3H11.5z
	 M13.8,57.6h3.5v2.3h-3.5V57.6z M19.6,57.6h3.5v2.3h-3.5V57.6z M25.4,57.6h3.5v2.3h-3.5V57.6z M3.5,41.5h8.1v13.8H2.3V42.6
	C2.3,42,2.8,41.5,3.5,41.5z M2.3,58.8v-1.2h3.5v2.3H3.5C2.8,59.9,2.3,59.4,2.3,58.8z M54.2,59.8v-2.3c1.3-0.2,2.5-0.8,3.4-1.6
	C57.4,57.8,56,59.3,54.2,59.8z M57.6,50.7c0,2.5-2.1,4.6-4.6,4.6H36.9V30H53c1.7,0,3.3-0.6,4.6-1.8V50.7z M59.9,2.3v2.3h-3.5V2.3
	H59.9z M39.2,2.3h3.5v2.3h-3.5V2.3z M36.9,4.6h-3.5V2.3h3.5V4.6z M16.1,2.3h3.5v2.3h-3.5V2.3z M10.4,6.3c0.2-1.9,1.6-3.4,3.4-3.9
	v2.3C12.6,4.9,11.4,5.5,10.4,6.3z M21.9,4.6V2.3h3.5v2.3H21.9z M27.7,2.3h3.5v2.3h-3.5V2.3z M44.9,4.6V2.3h3.5v2.3H44.9z M50.7,2.3
	h3.5v2.3h-3.5V2.3z M62.2,4.6V2.3h2.3c0.6,0,1.2,0.5,1.2,1.2v1.2H62.2z"/>
</svg>
