<?xml version="1.0" encoding="utf-8"?>
<!-- Generator: Adobe Illustrator 24.0.2, SVG Export Plug-In . SVG Version: 6.00 Build 0)  -->
<!DOCTYPE svg PUBLIC "-//W3C//DTD SVG 1.1//EN" "http://www.w3.org/Graphics/SVG/1.1/DTD/svg11.dtd" [
	<!ENTITY ns_extend "http://ns.adobe.com/Extensibility/1.0/">
	<!ENTITY ns_ai "http://ns.adobe.com/AdobeIllustrator/10.0/">
	<!ENTITY ns_graphs "http://ns.adobe.com/Graphs/1.0/">
	<!ENTITY ns_vars "http://ns.adobe.com/Variables/1.0/">
	<!ENTITY ns_imrep "http://ns.adobe.com/ImageReplacement/1.0/">
	<!ENTITY ns_sfw "http://ns.adobe.com/SaveForWeb/1.0/">
	<!ENTITY ns_custom "http://ns.adobe.com/GenericCustomNamespace/1.0/">
	<!ENTITY ns_adobe_xpath "http://ns.adobe.com/XPath/1.0/">
]>
<svg version="1.1" id="Layer_5" xmlns:x="&ns_extend;" xmlns:i="&ns_ai;" xmlns:graph="&ns_graphs;"
	 xmlns="http://www.w3.org/2000/svg" xmlns:xlink="http://www.w3.org/1999/xlink" x="0px" y="0px" viewBox="0 0 62 40"
	 style="enable-background:new 0 0 62 40;" xml:space="preserve">
<style type="text/css">
	.st0{fill:#4AE9F7;}
</style>
<metadata>
	<sfw  xmlns="&ns_sfw;">
		<slices></slices>
		<sliceSourceBounds  bottomLeftOrigin="true" height="40" width="62" x="0" y="0"></sliceSourceBounds>
	</sfw>
</metadata>
<g>
	<path class="st0" d="M62,11c0-0.4-0.3-11-27-11C23.1,0,10.2,9.6,4.7,16.5C0.1,19.4,0,22.8,0,23c0,1.5,1.1,2.7,2.4,2.9
		C2.2,26.9,2,28,2,29c0,6.1,4.9,11,11,11h30c1.6,0,3-0.3,4.5-1c2.1,0.6,4.3,1,6.5,1c3.3,0,6-2.7,6-6c0-1.8-1.8-4.7-4.8-7.9
		c3-2,4.8-5.4,4.8-9.1c0-1-0.2-2.1-0.4-3.1C60.9,13.7,62,12.5,62,11z M17.8,7.8c1.1,0.9,2,1.7,2.5,2.7l1.7-1c-0.6-1-1.4-1.9-2.4-2.7
		c1.9-1.1,3.9-2,5.9-2.8c1.9,1.1,4.5,3.2,4.5,6h2c0-3-2.1-5.3-4.1-6.9C30.2,2.4,32.7,2,35,2c0.3,0,0.7,0,1,0c1.4,1.1,3,2.9,3,5h2
		c0-1.7-0.7-3.4-2-4.9c11.2,0.5,16.5,3.1,18.9,5.4C57.7,7.8,57.4,8,57,8c-8.8,0-17.5,1.5-25.8,4.4C29.8,12.1,28.4,12,27,12
		c-8,0-13.6,0.9-17.5,2.3C11.7,12.1,14.6,9.8,17.8,7.8L17.8,7.8z M41.2,18.1c-2,1.5-4.2,3.8-4.2,6.9h2c0-2.6,2.4-4.7,4.2-5.8
		c1.8,1.1,3.6,2.3,5.2,3.5C46.8,24.4,46,26.1,46,28h2c0-1.4,0.7-2.7,1.9-4c4.4,3.7,7.5,7.5,8,9.5C57.3,33.8,56.7,34,56,34
		c-3.7,0-7.4-1-10.7-2.9l-0.7-0.4C32.6,23.7,18.9,20,5,20c-0.4,0-0.7-0.2-0.9-0.5c2.3-2.1,7-4.5,16.8-5.3C19.7,15.7,19,17.3,19,19h2
		c0-2.1,1.5-3.8,2.9-4.9c1,0,2-0.1,3.1-0.1c1.9,0,3.8,0.3,5.7,0.7c-2.2,1.5-4.7,4-4.7,7.3h2c0-3.2,3.5-5.5,5.3-6.5
		C37.3,16.2,39.3,17,41.2,18.1L41.2,18.1z M43,38H13c-5,0-9-4-9-9c0-1,0.2-2,0.5-3c13,0.3,25.8,3.8,37.1,10.4l0.7,0.4
		c0.7,0.4,1.3,0.7,2,1C43.9,38,43.5,38,43,38L43,38z M54,38c-3.7,0-7.4-1-10.7-2.9l-0.7-0.4C30.6,27.7,16.9,24,3,24
		c-0.6,0-1-0.4-1-1c0,0,0.1-0.8,0.8-2c0.5,0.6,1.3,1,2.2,1c13.6,0,26.9,3.6,38.6,10.4l0.7,0.4C47.9,34.9,51.9,36,56,36
		c0.5,0,1.1-0.1,1.6-0.2C56.9,37.1,55.6,38,54,38z M53.7,24.6c-3.2-3.1-7.4-6.3-12.1-8.6c5.2-1.2,10.5-1.9,15.8-2
		c0.3,1,0.5,1.9,0.5,3C58,20.1,56.4,23,53.7,24.6z M59,12c-6.8,0-13.6,0.9-20.2,2.6c-1.3-0.5-2.6-1-3.9-1.4C42.1,11.1,49.5,10,57,10
		c0.9,0,1.6-0.4,2.2-1c0.7,1.1,0.8,2,0.8,2C60,11.6,59.6,12,59,12z"/>
	<path class="st0" d="M8,29c0-0.3,0-0.6,0.1-0.8l-2-0.3C6,28.2,6,28.6,6,29c0,3.9,3.1,7,7,7h2v-2h-2C10.2,34,8,31.8,8,29z"/>
	<path class="st0" d="M17,34h2v2h-2V34z"/>
	<path class="st0" d="M21,34h2v2h-2V34z"/>
	<path class="st0" d="M47.3,16.7l1.4-1.4l1,1l-1.4,1.4L47.3,16.7z"/>
	<path class="st0" d="M51.3,19.3l1-1l1.4,1.4l-1,1L51.3,19.3z"/>
	<path class="st0" d="M53.3,16.7l1.4-1.4l1,1l-1.4,1.4L53.3,16.7z"/>
</g>
</svg>
