<?xml version="1.0" encoding="utf-8"?>
<!-- Generator: Adobe Illustrator 24.0.2, SVG Export Plug-In . SVG Version: 6.00 Build 0)  -->
<!DOCTYPE svg PUBLIC "-//W3C//DTD SVG 1.1//EN" "http://www.w3.org/Graphics/SVG/1.1/DTD/svg11.dtd" [
	<!ENTITY ns_extend "http://ns.adobe.com/Extensibility/1.0/">
	<!ENTITY ns_ai "http://ns.adobe.com/AdobeIllustrator/10.0/">
	<!ENTITY ns_graphs "http://ns.adobe.com/Graphs/1.0/">
	<!ENTITY ns_vars "http://ns.adobe.com/Variables/1.0/">
	<!ENTITY ns_imrep "http://ns.adobe.com/ImageReplacement/1.0/">
	<!ENTITY ns_sfw "http://ns.adobe.com/SaveForWeb/1.0/">
	<!ENTITY ns_custom "http://ns.adobe.com/GenericCustomNamespace/1.0/">
	<!ENTITY ns_adobe_xpath "http://ns.adobe.com/XPath/1.0/">
]>
<svg version="1.1" id="Layer_1" xmlns:x="&ns_extend;" xmlns:i="&ns_ai;" xmlns:graph="&ns_graphs;"
	 xmlns="http://www.w3.org/2000/svg" xmlns:xlink="http://www.w3.org/1999/xlink" x="0px" y="0px" viewBox="0 0 65 55.8"
	 style="enable-background:new 0 0 65 55.8;" xml:space="preserve">
<style type="text/css">
	.st0{fill:#FFFFFF;}
</style>
<metadata>
	<sfw  xmlns="&ns_sfw;">
		<slices></slices>
		<sliceSourceBounds  bottomLeftOrigin="true" height="55.8" width="65" x="0" y="35.2"></sliceSourceBounds>
	</sfw>
</metadata>
<path class="st0" d="M32.7,10.2c-3.1,0-5.7,1.3-6.9,3.5c-0.3,0.5-0.1,1,0.4,1.3c0.5,0.3,1,0.1,1.3-0.4c0.8-1.5,2.9-2.5,5.2-2.5
	c2.4,0,4.4,1,5.2,2.5c0.2,0.3,0.5,0.5,0.8,0.5c0.2,0,0.3,0,0.5-0.1c0.5-0.3,0.6-0.8,0.4-1.3C38.4,11.6,35.8,10.2,32.7,10.2z"/>
<path class="st0" d="M42.4,11.4c0.2,0.3,0.5,0.5,0.8,0.5c0.2,0,0.3,0,0.5-0.1c0.5-0.3,0.6-0.8,0.4-1.3C42.2,7,37.8,4.8,32.7,4.8
	c-5.1,0-9.5,2.2-11.4,5.7c-0.3,0.5-0.1,1,0.4,1.3s1,0.1,1.3-0.4c1.6-2.9,5.3-4.7,9.7-4.7C37.1,6.7,40.8,8.5,42.4,11.4z"/>
<path class="st0" d="M16.9,9.3c0.5,0.3,1,0.1,1.3-0.4c2.3-4.3,7.9-7,14.5-7c6.6,0,12.1,2.7,14.5,7c0.2,0.3,0.5,0.5,0.8,0.5
	c0.2,0,0.3,0,0.5-0.1c0.5-0.3,0.6-0.8,0.4-1.3C46.2,3.1,40,0,32.7,0S19.2,3.1,16.5,8C16.3,8.5,16.4,9.1,16.9,9.3z"/>
<path class="st0" d="M51,29c1.4,0,2.5-1.1,2.5-2.5c0-1.4-1.1-2.5-2.5-2.5c-1.4,0-2.5,1.1-2.5,2.5C48.5,27.9,49.6,29,51,29z M51,26
	c0.3,0,0.6,0.3,0.6,0.6c0,0.3-0.3,0.6-0.6,0.6c-0.3,0-0.6-0.3-0.6-0.6S50.6,26,51,26z"/>
<path class="st0" d="M51,31.9c-1.4,0-2.5,1.1-2.5,2.5s1.1,2.5,2.5,2.5c1.4,0,2.5-1.1,2.5-2.5S52.3,31.9,51,31.9z M51,35
	c-0.3,0-0.6-0.3-0.6-0.6s0.3-0.6,0.6-0.6c0.3,0,0.6,0.3,0.6,0.6C51.5,34.7,51.3,35,51,35z"/>
<path class="st0" d="M49.5,30.5c0-1.4-1.1-2.5-2.5-2.5c-1.4,0-2.5,1.1-2.5,2.5c0,1.4,1.1,2.5,2.5,2.5C48.4,33,49.5,31.8,49.5,30.5z
	 M47,31c-0.3,0-0.6-0.3-0.6-0.6c0-0.3,0.3-0.6,0.6-0.6c0.3,0,0.6,0.3,0.6,0.6C47.6,30.8,47.4,31,47,31z"/>
<path class="st0" d="M54.9,28c-1.4,0-2.5,1.1-2.5,2.5c0,1.4,1.1,2.5,2.5,2.5s2.5-1.1,2.5-2.5C57.3,29.1,56.2,28,54.9,28z M54.9,31
	c-0.3,0-0.6-0.3-0.6-0.6c0-0.3,0.3-0.6,0.6-0.6c0.3,0,0.6,0.3,0.6,0.6C55.4,30.8,55.2,31,54.9,31z"/>
<path class="st0" d="M23.6,34.1c-2.5,0-4.5,2-4.5,4.5s2,4.5,4.5,4.5c2.5,0,4.5-2,4.5-4.5C28.1,36.1,26.1,34.1,23.6,34.1z M23.6,41.2
	c-1.4,0-2.6-1.2-2.6-2.6s1.2-2.6,2.6-2.6s2.6,1.2,2.6,2.6S25.1,41.2,23.6,41.2z"/>
<path class="st0" d="M64.6,45.1L60,26.2c-0.7-2.7-2-4.8-3.9-6.2c-0.4-0.3-0.8-0.5-1.3-0.7v-0.4c0-2-1.6-3.6-3.6-3.6h-2.1
	c-2,0-3.6,1.6-3.6,3.6v0.5c-0.8,0.4-1.4,0.9-1.7,1.5h-9.2c-0.5,0-1,0.4-1,1s0.4,1,1,1h8.8v1.9c0,1.1-0.9,1.9-1.9,1.9h-18
	c-1.1,0-1.9-0.9-1.9-1.9v-1.9h8.6c0.5,0,1-0.4,1-1s-0.4-1-1-1h-9c-0.4-0.6-1-1.1-1.7-1.5v-0.6c0-2-1.6-3.6-3.6-3.6h-2.1
	c-2,0-3.6,1.6-3.6,3.6v0.4c-0.4,0.2-0.9,0.5-1.3,0.7C7,21.4,5.7,23.4,5,26.2L0.4,45.1c-0.7,2.8-0.6,5.1,0.3,7c0.8,1.7,2.2,2.8,4,3.4
	c3.9,1.2,8.4-0.8,9.7-4.3l2.2-5.9c0.3-0.8,0.5-0.9,0.5-0.9c0,0,0.2,0,0.5,0.3c3.1,2.8,8.1,2.7,11.5-0.2h6.6c1.5,1.3,3.5,2.1,5.5,2.2
	c2.2,0.1,4.3-0.6,5.9-2c0.4-0.3,0.5-0.3,0.5-0.3c0,0,0.2,0.1,0.5,0.9l2.2,5.9c1,2.8,4.2,4.6,7.4,4.6c0.8,0,1.6-0.1,2.4-0.3
	c1.8-0.6,3.2-1.7,4-3.4C65.1,50.2,65.2,47.9,64.6,45.1z M49.1,17.2h2.1c0.8,0,1.5,0.6,1.7,1.4c-0.8-0.2-1.6-0.3-2.5-0.3c0,0,0,0,0,0
	c-1,0-2,0.1-3,0.4C47.5,17.8,48.2,17.2,49.1,17.2z M13.8,17.2h2.1c0.9,0,1.6,0.6,1.7,1.5c-0.9-0.2-1.9-0.4-3-0.4c0,0,0,0,0,0
	c-0.9,0-1.7,0.1-2.5,0.3C12.2,17.8,12.9,17.2,13.8,17.2z M59.7,53.7c-2.6,0.8-6.4-0.3-7.4-3.1l-2.2-5.9c-0.4-1.1-1-1.8-1.8-2
	c-0.7-0.2-1.4,0-2.2,0.6c0,0,0,0-0.1,0.1c-2.4,2.3-6.6,2.1-9.2-0.4c-0.2-0.2-0.4-0.3-0.7-0.3h-7.4c-0.2,0-0.5,0.1-0.7,0.3
	c-2.6,2.5-6.7,2.7-9.2,0.4c0,0,0,0-0.1-0.1c-0.8-0.6-1.5-0.8-2.2-0.6c-0.8,0.2-1.3,0.9-1.8,2l-2.2,5.9c-1,2.8-4.8,3.9-7.4,3.1
	c-3-0.9-4.1-3.9-3-8.1l4.6-18.9c0.8-3.4,2.7-5.1,4.5-5.8c0.1,0,0.2,0,0.2-0.1c1.1-0.4,2.2-0.5,3-0.5c1.4,0,2.6,0.3,3.5,0.7
	c0,0,0,0,0,0c0.8,0.4,1.3,0.8,1.5,1.1v2.7c0,2.1,1.7,3.9,3.9,3.9h18c2.1,0,3.8-1.7,3.8-3.9V22c0.1-0.3,0.7-0.8,1.5-1.1
	c0,0,0.1,0,0.1-0.1c0.9-0.4,2.1-0.7,3.5-0.7h0c0.8,0,1.9,0.1,3,0.5c0.1,0,0.1,0.1,0.2,0.1c1.8,0.8,3.7,2.4,4.5,5.8l4.6,18.9
	C63.7,49.8,62.6,52.8,59.7,53.7z"/>
<path class="st0" d="M42.1,34.1c-2.5,0-4.5,2-4.5,4.5s2,4.5,4.5,4.5c2.5,0,4.5-2,4.5-4.5C46.6,36.1,44.6,34.1,42.1,34.1z M42.1,41.2
	c-1.4,0-2.6-1.2-2.6-2.6s1.2-2.6,2.6-2.6s2.6,1.2,2.6,2.6S43.6,41.2,42.1,41.2z"/>
<path class="st0" d="M17,28h-0.3v-0.3c0-1.6-1.3-2.9-2.9-2.9s-2.9,1.3-2.9,2.9V28h-0.3c-1.6,0-2.9,1.3-2.9,2.9
	c0,1.6,1.3,2.9,2.9,2.9h0.3v0.3c0,1.6,1.3,2.9,2.9,2.9s2.9-1.3,2.9-2.9v-0.3H17c1.6,0,2.9-1.3,2.9-2.9C20,29.3,18.7,28,17,28z
	 M17,31.9h-1.2c-0.5,0-1,0.4-1,1v1.2c0,0.6-0.5,1-1,1c-0.6,0-1-0.5-1-1v-1.2c0-0.5-0.4-1-1-1h-1.2c-0.6,0-1-0.5-1-1s0.5-1,1-1h1.2
	c0.5,0,1-0.4,1-1v-1.2c0-0.6,0.5-1,1-1c0.6,0,1,0.5,1,1v1.2c0,0.5,0.4,1,1,1H17c0.6,0,1,0.5,1,1S17.6,31.9,17,31.9z"/>
<path class="st0" d="M30,31.5h-1.4c-0.5,0-1,0.4-1,1s0.4,1,1,1H30c0.5,0,1-0.4,1-1S30.5,31.5,30,31.5z"/>
<path class="st0" d="M36.4,31.5H35c-0.5,0-1,0.4-1,1s0.4,1,1,1h1.4c0.5,0,1-0.4,1-1S36.9,31.5,36.4,31.5z"/>
<path class="st0" d="M33.6,36.5h-1.4c-0.5,0-1,0.4-1,1s0.4,1,1,1h1.4c0.5,0,1-0.4,1-1S34.1,36.5,33.6,36.5z"/>
</svg>
