<?xml version="1.0" encoding="utf-8"?>
<!-- Generator: Adobe Illustrator 24.0.2, SVG Export Plug-In . SVG Version: 6.00 Build 0)  -->
<!DOCTYPE svg PUBLIC "-//W3C//DTD SVG 1.1//EN" "http://www.w3.org/Graphics/SVG/1.1/DTD/svg11.dtd" [
	<!ENTITY ns_extend "http://ns.adobe.com/Extensibility/1.0/">
	<!ENTITY ns_ai "http://ns.adobe.com/AdobeIllustrator/10.0/">
	<!ENTITY ns_graphs "http://ns.adobe.com/Graphs/1.0/">
	<!ENTITY ns_vars "http://ns.adobe.com/Variables/1.0/">
	<!ENTITY ns_imrep "http://ns.adobe.com/ImageReplacement/1.0/">
	<!ENTITY ns_sfw "http://ns.adobe.com/SaveForWeb/1.0/">
	<!ENTITY ns_custom "http://ns.adobe.com/GenericCustomNamespace/1.0/">
	<!ENTITY ns_adobe_xpath "http://ns.adobe.com/XPath/1.0/">
]>
<svg version="1.1" id="Capa_1" xmlns:x="&ns_extend;" xmlns:i="&ns_ai;" xmlns:graph="&ns_graphs;"
	 xmlns="http://www.w3.org/2000/svg" xmlns:xlink="http://www.w3.org/1999/xlink" x="0px" y="0px" viewBox="0 0 60.5 69.9"
	 style="enable-background:new 0 0 60.5 69.9;" xml:space="preserve">
<style type="text/css">
	.st0{fill:#FF8C38;}
</style>
<metadata>
	<sfw  xmlns="&ns_sfw;">
		<slices></slices>
		<sliceSourceBounds  bottomLeftOrigin="true" height="70" width="60.7" x="0" y="-0.1"></sliceSourceBounds>
	</sfw>
</metadata>
<g>
	<path class="st0" d="M59.1,29.9c0.8,0,1.4-0.6,1.4-1.4s-0.6-1.4-1.4-1.4H54v-3.7h5.2c0.8,0,1.4-0.6,1.4-1.4s-0.6-1.4-1.4-1.4H54
		v-2.2c0-0.4-0.1-0.7-0.4-1l-3.9-4c-0.3-0.3-0.6-0.4-1-0.4h-2.2V8c0-0.8-0.6-1.4-1.4-1.4c-0.8,0-1.4,0.6-1.4,1.4v5.2H40V8
		c0-0.8-0.6-1.4-1.4-1.4c-0.8,0-1.4,0.6-1.4,1.4v5.2h-3.7V8.3c0-4.6-3.7-8.3-8.3-8.3c-3.7,0-7,2.5-7.9,6c-2.8,0.3-5.5,1.5-7.5,3.6
		c-2.3,2.3-3.6,5.4-3.6,8.7c0,1.6,0.3,3.2,0.9,4.7c-1.9,1-3.6,2.5-4.8,4.3C0.8,29.5,0,32.2,0,35c0,5.1,2.8,9.6,7.2,12
		c-0.6,1.5-0.9,3.1-0.9,4.7c0,3.3,1.3,6.3,3.6,8.7c2,2.1,4.7,3.3,7.5,3.6c1,3.5,4.2,6,7.9,6c4.6,0,8.3-3.7,8.3-8.3v-4.9h3.7V62
		c0,0.8,0.6,1.4,1.4,1.4s1.4-0.6,1.4-1.4v-5.2h3.7V62c0,0.8,0.6,1.4,1.4,1.4c0.8,0,1.4-0.6,1.4-1.4v-5.2h2.2c0.4,0,0.7-0.1,1-0.4
		l3.9-3.9c0.3-0.3,0.4-0.6,0.4-1v-2.2h5.2c0.8,0,1.4-0.6,1.4-1.4c0-0.8-0.6-1.4-1.4-1.4H54v-3.7h5.2c0.8,0,1.4-0.6,1.4-1.4
		c0-0.8-0.6-1.4-1.4-1.4H54v-3.7h5.2c0.8,0,1.4-0.6,1.4-1.4c0-0.8-0.6-1.4-1.4-1.4H54v-3.7L59.1,29.9z M25.3,67.2
		c-2.3,0-4.3-1.4-5.1-3.4c1-0.2,2-0.5,2.9-0.9c1.4-0.6,2.6-1.5,3.6-2.5c0.5-0.5,0.5-1.4,0-1.9s-1.4-0.5-1.9,0
		c-0.8,0.8-1.7,1.5-2.8,2c-1.1,0.5-2.3,0.8-3.5,0.8C13.2,61.2,9,56.9,9,51.7c0-1.6,0.4-3.3,1.2-4.7c0.2-0.3,0.2-0.8,0.1-1.1
		c-0.1-0.4-0.4-0.7-0.8-0.8C5.4,43.4,2.7,39.4,2.7,35c0-4.5,2.7-8.4,6.8-10.1c0.8-0.4,1-1.1,0.7-1.9C9.4,21.6,9,20,9,18.3
		c0-5.2,4.2-9.5,9.4-9.6c1.2,0,2.4,0.3,3.5,0.8s2,1.1,2.8,2c0.3,0.3,0.6,0.4,1,0.4c0.3,0,0.7-0.1,1-0.4c0.5-0.5,0.6-1.4,0-1.9
		c-1-1.1-2.2-1.9-3.6-2.5c-0.9-0.4-1.9-0.7-2.9-0.9c0.8-2,2.8-3.4,5.1-3.4c3,0,5.5,2.5,5.5,5.5V25h-4.3l-3.6-3.6
		c0.4-0.7,0.6-1.5,0.6-2.3c0-1.3-0.5-2.5-1.4-3.4c-1.9-1.9-5-1.9-6.9,0c-0.9,0.9-1.4,2.1-1.4,3.4s0.5,2.5,1.4,3.4s2.2,1.4,3.4,1.4
		c0.8,0,1.6-0.2,2.3-0.6l4,4c0.3,0.3,0.6,0.4,1,0.4h4.8v5.9h-8.6c-0.6-2-2.5-3.5-4.6-3.5c-2.7,0-4.8,2.2-4.8,4.8
		c0,2.7,2.2,4.8,4.8,4.8c2.2,0,4.1-1.5,4.6-3.5h8.6v5.9H26h-0.1c-0.3,0-0.6,0.2-0.9,0.4l-4,4c-1.8-1-4.2-0.7-5.7,0.8
		c-0.9,0.9-1.4,2.1-1.4,3.4c0,1.3,0.5,2.5,1.4,3.4c0.9,0.9,2.2,1.4,3.4,1.4s2.5-0.5,3.4-1.4s1.4-2.1,1.4-3.4c0-0.8-0.2-1.6-0.6-2.3
		l3.6-3.6h4.3v16.7C30.8,64.7,28.3,67.2,25.3,67.2L25.3,67.2z M20.8,19.1c0,0.6-0.2,1.1-0.6,1.5c-0.8,0.8-2.2,0.8-3,0
		c-0.4-0.4-0.6-0.9-0.6-1.5s0.2-1.1,0.6-1.5c0.8-0.8,2.2-0.8,3,0C20.5,18,20.8,18.5,20.8,19.1z M19.7,35c0,1.2-0.9,2.1-2.1,2.1
		s-2.1-0.9-2.1-2.1c0-1.2,0.9-2.1,2.1-2.1C18.7,32.8,19.7,33.8,19.7,35z M20.8,50.9c0,0.6-0.2,1.1-0.6,1.5c-0.8,0.8-2.2,0.8-3,0
		c-0.4-0.4-0.6-0.9-0.6-1.5s0.2-1.1,0.6-1.5c0.8-0.8,2.2-0.8,3,0l0,0l0,0C20.5,49.8,20.8,50.3,20.8,50.9L20.8,50.9z M51.2,50.9
		L48.1,54H33.5v-4h12.3c0.8,0,1.4-0.6,1.4-1.4v-7.5c0-0.8-0.6-1.4-1.4-1.4c-0.8,0-1.4,0.6-1.4,1.4v6.2H33.5V22.7h10.9v6.2
		c0,0.8,0.6,1.4,1.4,1.4c0.8,0,1.4-0.6,1.4-1.4v-7.5c0-0.8-0.6-1.4-1.4-1.4H33.5v-4.1h14.6l3.1,3.2C51.2,19.1,51.2,50.9,51.2,50.9z"
		/>
	<path class="st0" d="M45.8,33.6c-0.8,0-1.4,0.6-1.4,1.4l0,0c0,0.8,0.6,1.4,1.4,1.4c0.8,0,1.4-0.6,1.4-1.4
		C47.2,34.2,46.6,33.6,45.8,33.6L45.8,33.6z"/>
</g>
</svg>
