<svg id="Layer_1" data-name="Layer 1" xmlns="http://www.w3.org/2000/svg" width="24.34cm" height="4.22cm" viewBox="0 0 690.04 119.51">
  <defs>
    <style>
      .cls-1 {
        fill: #97c642;
      }

      .cls-2 {
        fill: #231f20;
      }
    </style>
  </defs>
  <title>backeame</title>
  <path class="cls-1" d="M94.79,45.41,49.88,18.55V29.81L89.83,53.7c1.72,1,4.61,3.18,4.61,6s-2.91,5-4.64,6L19.92,107.58a14.1,14.1,0,0,1-6.65,2.27c-1.08,0-3.61,0-3.61-4.94V14.62c0-5,2.54-5,3.62-5A14.16,14.16,0,0,1,20,11.93L30.13,18V76.84c0,2,.95,3.28,2.48,3.28a4.91,4.91,0,0,0,2.67-1l20.48-14a3.88,3.88,0,0,0,0-6.84L40,47.49V12.61h-.07l-15-9A23.2,23.2,0,0,0,13.28,0C5.34,0,0,5.88,0,14.62v90.29c0,8.73,5.33,14.6,13.27,14.6a23.09,23.09,0,0,0,11.61-3.64L94.76,74.1c6-3.61,9.34-8.7,9.34-14.35S100.79,49,94.79,45.41"/>
  <path class="cls-2" d="M158.77,92.51a18.37,18.37,0,0,1-9.33-2.35A17.19,17.19,0,0,1,143,83.71v7.93H132.8V28h11.68V54a17.64,17.64,0,0,1,6.4-6.49,18.1,18.1,0,0,1,9.28-2.31,17.17,17.17,0,0,1,8.1,1.92,20.36,20.36,0,0,1,6.32,5.14,23.13,23.13,0,0,1,4.09,7.58A29,29,0,0,1,180.11,69a26,26,0,0,1-1.61,9.23A23.21,23.21,0,0,1,174,85.67a21,21,0,0,1-6.79,5A19.75,19.75,0,0,1,158.77,92.51Zm-3.23-9.93a12,12,0,0,0,5.14-1.09,12.32,12.32,0,0,0,4-2.92,13.23,13.23,0,0,0,2.57-4.27,14.69,14.69,0,0,0,.92-5.22,16.27,16.27,0,0,0-.88-5.32,13.77,13.77,0,0,0-2.48-4.44,12.24,12.24,0,0,0-3.79-3,10.16,10.16,0,0,0-4.79-1.13,10.64,10.64,0,0,0-7,2.57A17,17,0,0,0,144.48,64V74.91a9.76,9.76,0,0,0,1.78,3.14,12.8,12.8,0,0,0,2.66,2.39A12.4,12.4,0,0,0,152.15,82,10.86,10.86,0,0,0,155.54,82.58Z"/>
  <path class="cls-2" d="M200.5,92.51a17.26,17.26,0,0,1-6.19-1.09,14.72,14.72,0,0,1-5-3,14,14,0,0,1-3.27-4.57,13.75,13.75,0,0,1-1.18-5.75,12.66,12.66,0,0,1,1.44-6,13.65,13.65,0,0,1,4-4.66,19.88,19.88,0,0,1,6.14-3,27,27,0,0,1,7.84-1.08,33.73,33.73,0,0,1,6,.52,24.39,24.39,0,0,1,5.18,1.48V62.72c0-3-.85-5.35-2.57-7s-4.25-2.44-7.62-2.44a20.17,20.17,0,0,0-7.14,1.3A32.81,32.81,0,0,0,191,58.45L187.43,51a33.71,33.71,0,0,1,19-5.84q9.84,0,15.29,4.84t5.45,14v14.2a4.17,4.17,0,0,0,.65,2.62,2.9,2.9,0,0,0,2.14.87v9.93a25.8,25.8,0,0,1-5.14.61,7.77,7.77,0,0,1-5.1-1.48,6.36,6.36,0,0,1-2.22-3.92l-.26-2.53a20.29,20.29,0,0,1-7.41,6.1A21.3,21.3,0,0,1,200.5,92.51ZM203.81,84a15.36,15.36,0,0,0,5.62-1,10.28,10.28,0,0,0,4.14-2.79,4.21,4.21,0,0,0,1.91-3.31V71.6A28.7,28.7,0,0,0,211,70.34a24.27,24.27,0,0,0-4.7-.48,12.46,12.46,0,0,0-7.41,2A6.15,6.15,0,0,0,196,77.09,6.21,6.21,0,0,0,198.23,82,8.21,8.21,0,0,0,203.81,84Z"/>
  <path class="cls-2" d="M235.17,68.81a24.74,24.74,0,0,1,1.66-9.06,22.08,22.08,0,0,1,4.79-7.49,23.36,23.36,0,0,1,7.58-5.14,25,25,0,0,1,10-1.92A24,24,0,0,1,272,48.43a20.65,20.65,0,0,1,7.89,8.45l-11.42,3.48a10.25,10.25,0,0,0-3.92-3.87,11,11,0,0,0-5.4-1.35,11.08,11.08,0,0,0-4.7,1,11.48,11.48,0,0,0-3.79,2.79,12.76,12.76,0,0,0-2.53,4.31,16.23,16.23,0,0,0-.92,5.57,15.56,15.56,0,0,0,1,5.58,14.12,14.12,0,0,0,2.57,4.36,11.39,11.39,0,0,0,3.79,2.83,10.88,10.88,0,0,0,4.62,1A11.14,11.14,0,0,0,264.92,81a8.77,8.77,0,0,0,3.71-3.83L280,80.66a19.19,19.19,0,0,1-7.75,8.54,24.38,24.38,0,0,1-13,3.31,25,25,0,0,1-10-1.92,22.7,22.7,0,0,1-12.42-12.76A24.42,24.42,0,0,1,235.17,68.81Z"/>
  <path class="cls-2" d="M318.37,91.64,305.13,71.86l-6.27,6.19V91.64H287.18V28h11.68v38.6l18.29-20.57h12.46l-17,19.35,18.21,26.22Z"/>
  <path class="cls-1" d="M347.65,92.51a17.26,17.26,0,0,1-6.19-1.09,14.63,14.63,0,0,1-5-3,14,14,0,0,1-3.27-4.57,13.75,13.75,0,0,1-1.18-5.75,12.66,12.66,0,0,1,1.44-6,13.65,13.65,0,0,1,4-4.66,19.88,19.88,0,0,1,6.14-3,27,27,0,0,1,7.84-1.08,33.73,33.73,0,0,1,6,.52,24.39,24.39,0,0,1,5.18,1.48V62.72c0-3-.86-5.35-2.57-7s-4.25-2.44-7.62-2.44a20.17,20.17,0,0,0-7.14,1.3,32.81,32.81,0,0,0-7.15,3.84L334.58,51a33.71,33.71,0,0,1,19-5.84q9.84,0,15.29,4.84t5.45,14v14.2a4.11,4.11,0,0,0,.65,2.62,2.9,2.9,0,0,0,2.14.87v9.93a25.8,25.8,0,0,1-5.15.61,7.76,7.76,0,0,1-5.09-1.48,6.36,6.36,0,0,1-2.22-3.92l-.26-2.53a20.29,20.29,0,0,1-7.41,6.1A21.33,21.33,0,0,1,347.65,92.51ZM351,84a15.36,15.36,0,0,0,5.62-1,10.28,10.28,0,0,0,4.14-2.79,4.21,4.21,0,0,0,1.91-3.31V71.6a28.7,28.7,0,0,0-4.53-1.26,24.27,24.27,0,0,0-4.7-.48,12.46,12.46,0,0,0-7.41,2,6.15,6.15,0,0,0-2.87,5.18A6.21,6.21,0,0,0,345.38,82,8.21,8.21,0,0,0,351,84Z"/>
  <path class="cls-2" d="M411.16,92.51a18.34,18.34,0,0,1-9.32-2.35,17.21,17.21,0,0,1-6.45-6.45v7.93H385.2V28h11.67V54a17.71,17.71,0,0,1,6.4-6.49,18.13,18.13,0,0,1,9.28-2.31,17.18,17.18,0,0,1,8.11,1.92A20.32,20.32,0,0,1,427,52.26a23.34,23.34,0,0,1,4.1,7.58A29.25,29.25,0,0,1,432.5,69a25.77,25.77,0,0,1-1.61,9.23,23.18,23.18,0,0,1-4.48,7.45,21.19,21.19,0,0,1-6.8,5A19.72,19.72,0,0,1,411.16,92.51Zm-3.22-9.93a12.06,12.06,0,0,0,5.14-1.09,12.38,12.38,0,0,0,4-2.92,13.06,13.06,0,0,0,2.57-4.27,14.69,14.69,0,0,0,.92-5.22,16.26,16.26,0,0,0-.87-5.32,13.79,13.79,0,0,0-2.49-4.44,12.12,12.12,0,0,0-3.79-3,10.13,10.13,0,0,0-4.79-1.13,10.64,10.64,0,0,0-7,2.57A17.05,17.05,0,0,0,396.87,64V74.91a9.78,9.78,0,0,0,1.79,3.14,12.75,12.75,0,0,0,2.65,2.39A12.56,12.56,0,0,0,404.54,82,10.87,10.87,0,0,0,407.94,82.58Z"/>
  <path class="cls-2" d="M440.43,39.63V28h11.68V39.63Zm0,52V46h11.68V91.64Z"/>
  <path class="cls-2" d="M459.6,84.5,485,54.18h-24.4V46h36.68v7.14L472.06,83.45h25.7v8.19H459.6Z"/>
  <path class="cls-2" d="M506,91.64V83.1h5.14v8.54Z"/>
  <path class="cls-2" d="M520.15,68.81a24.94,24.94,0,0,1,1.65-9.06,23,23,0,0,1,4.66-7.45,21.83,21.83,0,0,1,7.19-5,22.82,22.82,0,0,1,9.24-1.83,21.27,21.27,0,0,1,11.24,2.92,18.84,18.84,0,0,1,7.23,7.89l-5.75,1.83a13.9,13.9,0,0,0-5.36-5.45,15.79,15.79,0,0,0-14.12-.56,16.52,16.52,0,0,0-5.22,3.79,17.38,17.38,0,0,0-3.49,5.7,20.19,20.19,0,0,0-1.26,7.23A19.74,19.74,0,0,0,527.47,76,18.47,18.47,0,0,0,531,81.93a17.15,17.15,0,0,0,5.27,3.92,14.75,14.75,0,0,0,6.4,1.43,15.48,15.48,0,0,0,4.31-.61A16.54,16.54,0,0,0,551,85a14.61,14.61,0,0,0,3.14-2.49,7.91,7.91,0,0,0,1.82-3l5.84,1.74A14.78,14.78,0,0,1,559,85.76a19.07,19.07,0,0,1-4.31,3.57,20.82,20.82,0,0,1-5.49,2.35,23.41,23.41,0,0,1-6.23.83,22.07,22.07,0,0,1-16.38-7A23.85,23.85,0,0,1,521.85,78,24.33,24.33,0,0,1,520.15,68.81Z"/>
  <path class="cls-2" d="M590,92.51A21.5,21.5,0,0,1,581,90.64a22.24,22.24,0,0,1-7.1-5.1,22.92,22.92,0,0,1-4.66-7.49,25.06,25.06,0,0,1,0-18A23.67,23.67,0,0,1,574,52.52a22.82,22.82,0,0,1,7.1-5.14,20.86,20.86,0,0,1,9-1.92,21.19,21.19,0,0,1,9,1.92,22.65,22.65,0,0,1,7.14,5.14A23.85,23.85,0,0,1,610.89,60a24.37,24.37,0,0,1,1.7,9.07,24.7,24.7,0,0,1-1.66,9,23.08,23.08,0,0,1-4.66,7.49,22.12,22.12,0,0,1-7.15,5.1A21.75,21.75,0,0,1,590,92.51ZM573.55,69.16a19,19,0,0,0,1.31,7.1A19.18,19.18,0,0,0,578.39,82a15.84,15.84,0,0,0,5.23,3.88,15,15,0,0,0,6.4,1.39,14.72,14.72,0,0,0,6.4-1.43,17,17,0,0,0,5.27-3.92,18.73,18.73,0,0,0,3.58-5.8,20.15,20.15,0,0,0,0-14.24,18.58,18.58,0,0,0-3.58-5.84,16.88,16.88,0,0,0-5.27-3.92,14.59,14.59,0,0,0-6.4-1.44,14.36,14.36,0,0,0-6.36,1.44,17,17,0,0,0-5.23,4A19.22,19.22,0,0,0,574.86,62,19.7,19.7,0,0,0,573.55,69.16Z"/>
  <path class="cls-2" d="M690,91.64h-5.93V66.29q0-7.94-2.52-11.68a8.48,8.48,0,0,0-7.5-3.74,12.69,12.69,0,0,0-4.92,1,14.79,14.79,0,0,0-4.27,2.7,18.57,18.57,0,0,0-3.44,4.13,20.15,20.15,0,0,0-2.27,5.28v27.7h-5.92V66.29q0-8.1-2.44-11.76c-1.63-2.44-4.12-3.66-7.49-3.66a13.36,13.36,0,0,0-9.15,3.57,19.9,19.9,0,0,0-5.75,9.41V91.64h-5.92V46.25h5.4V56.53a21.48,21.48,0,0,1,7.32-8.15,18.17,18.17,0,0,1,10-2.92,12.91,12.91,0,0,1,9.19,3.23,14,14,0,0,1,4.22,8.45Q665,45.47,676.18,45.46a13.81,13.81,0,0,1,6.49,1.4,10.92,10.92,0,0,1,4.27,4A18.67,18.67,0,0,1,689.3,57a40.59,40.59,0,0,1,.74,8.06Z"/>
</svg>
