<?xml version="1.0" encoding="utf-8"?>
<!-- Generator: Adobe Illustrator 23.1.0, SVG Export Plug-In . SVG Version: 6.00 Build 0)  -->
<svg version="1.1" id="Layer_1" xmlns="http://www.w3.org/2000/svg" xmlns:xlink="http://www.w3.org/1999/xlink" x="0px" y="0px"
	 viewBox="0 0 744.3 119.5" style="enable-background:new 0 0 744.3 119.5;" xml:space="preserve">
<style type="text/css">
	.st0{fill:#30B570;}
	.st1{fill:#231F20;}
</style>
<path class="st0" d="M94.8,45.4L49.9,18.5v11.3l40,23.9c1.7,1,4.6,3.2,4.6,6s-2.9,5-4.6,6L20,107.6c-2,1.3-4.3,2.1-6.6,2.3
	c-1.1,0-3.6,0-3.6-4.9V14.6c0-5,2.5-5,3.6-5c2.4,0.2,4.7,1,6.7,2.3l10,6.1v58.8c0,2,1,3.3,2.5,3.3c1-0.1,1.9-0.4,2.7-1l20.5-14
	c1.9-1,2.6-3.4,1.6-5.3c-0.4-0.7-0.9-1.2-1.6-1.6L40,47.5V12.6h-0.1l-15-9C21.4,1.4,17.4,0.1,13.3,0C5.3,0,0,5.9,0,14.6v90.3
	c0,8.7,5.3,14.6,13.3,14.6c4.1-0.2,8.1-1.4,11.6-3.6l69.9-41.8c6-3.6,9.3-8.7,9.3-14.3S100.8,49,94.8,45.4"/>
<path class="st1" d="M144.9,27.5v23c2.1-2.1,4.4-3.7,6.8-4.7c2.4-1,5-1.6,7.8-1.6c6,0,11.2,2.3,15.4,6.8c4.2,4.6,6.3,10.4,6.3,17.6
	c0,6.9-2.2,12.7-6.6,17.3c-4.4,4.6-9.5,7-15.5,7c-2.7,0-5.1-0.5-7.4-1.4c-2.3-0.9-4.6-2.5-6.8-4.7v4.9h-11.5V27.5H144.9z
	 M157.1,54.9c-3.7,0-6.7,1.2-9.1,3.7c-2.4,2.5-3.6,5.8-3.6,9.8c0,4.1,1.2,7.4,3.6,10c2.4,2.5,5.4,3.8,9.1,3.8c3.5,0,6.5-1.3,9-3.9
	c2.4-2.6,3.6-5.9,3.6-9.9s-1.2-7.2-3.6-9.8C163.7,56.2,160.7,54.9,157.1,54.9z"/>
<path class="st1" d="M225,45.4h11.6v46.3H225v-4.9c-2.3,2.2-4.5,3.7-6.8,4.7s-4.8,1.4-7.4,1.4c-6,0-11.1-2.3-15.5-7
	s-6.5-10.4-6.5-17.3c0-7.1,2.1-13,6.3-17.6s9.3-6.8,15.4-6.8c2.8,0,5.4,0.5,7.8,1.6s4.7,2.6,6.8,4.7v-5.1H225z M212.8,54.9
	c-3.6,0-6.6,1.3-8.9,3.8c-2.4,2.5-3.6,5.8-3.6,9.8s1.2,7.3,3.6,9.9c2.4,2.6,5.4,3.9,8.9,3.9c3.6,0,6.7-1.3,9.1-3.8
	c2.4-2.5,3.6-5.9,3.6-10c0-4-1.2-7.3-3.6-9.8C219.5,56.1,216.5,54.9,212.8,54.9z"/>
<path class="st1" d="M293.7,54.7L284,60c-1.8-1.9-3.6-3.2-5.4-4c-1.8-0.7-3.9-1.1-6.2-1.1c-4.3,0-7.9,1.3-10.5,3.9
	c-2.7,2.6-4,5.9-4,10c0,3.9,1.3,7.2,3.9,9.6c2.6,2.5,6,3.7,10.2,3.7c5.2,0,9.2-1.8,12.1-5.3l9.2,6.3c-5,6.5-12,9.7-21,9.7
	c-8.1,0-14.5-2.4-19.1-7.2c-4.6-4.8-6.9-10.5-6.9-16.9c0-4.5,1.1-8.6,3.4-12.4c2.2-3.8,5.4-6.7,9.4-8.9s8.5-3.2,13.5-3.2
	c4.6,0,8.7,0.9,12.4,2.7S291.4,51.3,293.7,54.7z"/>
<path class="st1" d="M304.2,27.5h11.6v36.9l17.2-19h14.6l-19.9,22.2L350,91.7h-14.4l-19.7-21.3v21.3h-11.6L304.2,27.5L304.2,27.5z"
	/>
<path class="st1" d="M388.9,45.4h11.6v46.3h-11.6v-4.9c-2.3,2.2-4.5,3.7-6.8,4.7s-4.8,1.4-7.4,1.4c-6,0-11.1-2.3-15.5-7
	s-6.5-10.4-6.5-17.3c0-7.1,2.1-13,6.3-17.6c4.2-4.6,9.3-6.8,15.4-6.8c2.8,0,5.4,0.5,7.8,1.6c2.4,1,4.7,2.6,6.8,4.7L388.9,45.4
	L388.9,45.4z M376.7,54.9c-3.6,0-6.6,1.3-8.9,3.8c-2.4,2.5-3.6,5.8-3.6,9.8s1.2,7.3,3.6,9.9s5.4,3.9,8.9,3.9c3.6,0,6.7-1.3,9.1-3.8
	s3.6-5.9,3.6-10c0-4-1.2-7.3-3.6-9.8C383.4,56.1,380.3,54.9,376.7,54.9z"/>
<path class="st1" d="M423.7,27.5v23c2.1-2.1,4.4-3.7,6.8-4.7s5-1.6,7.8-1.6c6,0,11.2,2.3,15.4,6.8c4.2,4.6,6.3,10.4,6.3,17.6
	c0,6.9-2.2,12.7-6.6,17.3s-9.5,7-15.5,7c-2.7,0-5.1-0.5-7.4-1.4s-4.6-2.5-6.8-4.7v4.9h-11.5V27.5H423.7z M435.9,54.9
	c-3.7,0-6.7,1.2-9.1,3.7s-3.6,5.8-3.6,9.8c0,4.1,1.2,7.4,3.6,10s5.4,3.8,9.1,3.8c3.5,0,6.5-1.3,9-3.9c2.4-2.6,3.6-5.9,3.6-9.9
	s-1.2-7.2-3.6-9.8C442.6,56.2,439.6,54.9,435.9,54.9z"/>
<path class="st1" d="M474.3,26.3c2,0,3.8,0.7,5.2,2.2c1.5,1.5,2.2,3.3,2.2,5.4c0,2.1-0.7,3.8-2.2,5.3s-3.2,2.2-5.2,2.2
	c-2.1,0-3.8-0.7-5.3-2.2s-2.2-3.3-2.2-5.4c0-2,0.7-3.8,2.2-5.2S472.2,26.3,474.3,26.3z M468.4,45.4H480v46.3h-11.6V45.4z"/>
<path class="st1" d="M488.7,45.4h35.4l-20.8,36.5h19.6v9.8h-37.4l20.9-36.5h-17.7V45.4z"/>
<path class="st1" d="M537,79.5c1.8,0,3.4,0.6,4.7,1.9s2,2.9,2,4.7s-0.7,3.4-2,4.7c-1.3,1.3-2.9,2-4.7,2s-3.4-0.7-4.7-2s-2-2.9-2-4.7
	s0.7-3.4,2-4.7C533.6,80.2,535.2,79.5,537,79.5z"/>
<path class="st1" d="M600.8,82.3c-4.5,6.9-12.4,10.5-21.7,10.5c-15.2,0-25.4-11-25.4-23.9c0-13.6,10.6-24.7,25.9-24.7
	c8.9,0,17,3.7,21.3,10.8l-4.8,3c-4.1-5.4-9.8-8-16.7-8c-11.8,0-19.5,8.6-19.5,18.6c0,10.1,7.7,18.9,19.6,18.9
	c6.7,0,12.3-2.7,16.6-8.1L600.8,82.3z"/>
<path class="st1" d="M658.3,68.6c0,13.2-10.2,24.2-24.1,24.2c-13.9,0-24.1-11.1-24.1-24.2c0-13.2,10.3-24.5,24.1-24.5
	S658.3,55.4,658.3,68.6z M616.1,68.7c0,10.1,7.6,18.4,18,18.4s18-8.3,18-18.4c0-10.3-8.2-18.8-18-18.8
	C624.2,49.9,616.1,58.5,616.1,68.7z"/>
<path class="st1" d="M706.6,91.6h-5.9V67.9c0-3.6-0.3-6.5-0.4-8.6c-0.3-5.1-4.4-9.4-10.5-9.4c-4.1,0-8.2,2-10.8,5.4
	c-3.3,4.3-3.9,9.8-3.9,16.7v19.6h-5.9V45.4h5.9v7.9c4.1-5.9,9.2-9.1,15.9-9.1c7.1,0,12.1,3.7,14.6,11.2c4.1-7.4,10.2-11.2,17-11.2
	c9.6,0,15.8,6.9,15.8,20v27.4h-5.9V66.4c0-3.4-0.4-6.1-0.5-7.8c-0.3-4.1-4.2-8.6-10.5-8.6c-5.7,0-10.8,3.5-13.2,9.4
	c-1.5,3.7-1.7,7.8-1.7,12.1L706.6,91.6L706.6,91.6z"/>
</svg>
